# AST/ASF file generated using VICON BodyLanguage
# -----------------------------------------------
:version 1.10
:name VICON
:units
  mass 1.0
  length 0.45
  angle deg
:documentation
   .ast/.asf automatically generated from VICON data using
   VICON BodyBuilder and BodyLanguage model FoxedUp or BRILLIANT.MOD
:root
   order TX TY TZ RX RY RZ
   axis XYZ
   position 0 0 0  
   orientation 0 0 0 
:bonedata
  begin
     id 1 
     name lhipjoint
     direction 0.690799 -0.707083 0.151096 
     length 2.54797 
     axis 0 0 0  XYZ
  end
  begin
     id 2 
     name lfemur
     direction 0.34202 -0.939693 0  
     length 7.21646  
     axis 0 0 20  XYZ
    dof rx ry rz
    limits (-160.0 20.0)
           (-70.0 70.0)
           (-60.0 70.0)
  end
  begin
     id 3 
     name ltibia
     direction 0.34202 -0.939693 0   
     length 8.16759   
     axis 0 0 20   XYZ
    dof rx
    limits (-10.0 170.0)
  end
  begin
     id 4 
     name lfoot
     direction 0.0487203 -0.133858 0.989802   
     length 1.93375   
     axis -90 7.62852e-016 20   XYZ
    dof rx rz
    limits (-45.0 90.0)
           (-70.0 20.0)
  end
  begin
     id 5 
     name ltoes
     direction 1.53453e-011 -4.21783e-011 1   
     length 0.979747   
     axis -90 7.62852e-016 20   XYZ
    dof rx
    limits (-90.0 20.0)
  end
  begin
     id 6 
     name rhipjoint
     direction -0.694693 -0.703425 0.150315   
     length 2.56122  
     axis 0 0 0  XYZ 
  end
  begin
     id 7 
     name rfemur
     direction -0.34202 -0.939693 0   
     length 7.36786   
     axis 0 0 -20   XYZ
    dof rx ry rz
    limits (-160.0 20.0)
           (-70.0 70.0)
           (-70.0 60.0)
  end
  begin
     id 8 
     name rtibia
     direction -0.34202 -0.939693 0   
     length 8.07288   
     axis 0 0 -20   XYZ
    dof rx
    limits (-10.0 170.0)
 end
 begin
     id 9 
     name rfoot
     direction -0.0428397 -0.117701 0.992125   
     length 1.88295  
     axis -90 -7.62852e-016 -20   XYZ
    dof rx rz
    limits (-45.0 90.0)
           (-20.0 70.0)
  end
  begin
     id 10 
     name rtoes
     direction -1.53456e-011 -4.2187e-011 1   
     length 0.955578   
     axis -90 -7.62852e-016 -20   XYZ
    dof rx
    limits (-90.0 20.0)
  end
  begin
     id 11 
     name lowerback
     direction 0.0288145 0.999398 -0.0193241   
     length 1.92149   
     axis 0 0 0   XYZ
    dof rx ry rz
    limits (-20.0 45.0)
           (-30.0 30.0)
           (-30.0 30.0)
  end
  begin
     id 12 
     name upperback
     direction 0.0233784 0.998099 0.0570278   
     length 1.90435   
     axis 0 0 0   XYZ
    dof rx ry rz
    limits (-20.0 45.0)
           (-30.0 30.0)
           (-30.0 30.0)
  end
  begin
     id 13 
     name thorax
     direction 0.0096694 0.997833 0.0650817   
     length 1.9111   
     axis 0 0 0   XYZ
    dof rx ry rz
    limits (-20.0 45.0)
           (-30.0 30.0)
           (-30.0 30.0)
  end
  begin
     id 14 
     name lowerneck
     direction 0.00516803 0.999916 0.0118722   
     length 1.74664   
     axis 0 0 0   XYZ
    dof rx ry rz
    limits (-20.0 45.0)
           (-30.0 30.0)
           (-30.0 30.0)
  end
  begin
     id 15 
     name upperneck
     direction -0.0510851 0.996117 -0.071696   
     length 1.68498   
     axis 0 0 0   XYZ
    dof rx ry rz
    limits (-20.0 45.0)
           (-30.0 30.0)
           (-30.0 30.0)
  end
  begin
     id 16
     name head
     direction -0.019188 0.999436 -0.0275702  
     length 1.83483  
     axis 0 0 0   XYZ
    dof rx ry rz
    limits (-20.0 45.0)
           (-30.0 30.0)
           (-30.0 30.0)
  end
  begin
     id 17 
     name lclavicle
     direction 0.967006 0.248456 -0.0562957  
     length 3.39395  
     axis 0 0 0   XYZ
    dof ry rz
    limits (-20.0 10.0)
           (0.0 20.0)
  end
  begin
     id 18 
     name lhumerus
     direction 1 -4.48962e-011 -5.62711e-019   
     length 5.24318   
     axis 180 -30 -90   XYZ
    dof rx ry rz
    limits (-60.0 90.0)
           (-90.0 90.0)
           (-90.0 90.0)
  end
  begin
     id 19
     name lradius
     direction 1 -4.48966e-011 7.90625e-027   
     length 2.98999   
     axis 180 -30 -90   XYZ
    dof rx
    limits (-10.0 170.0)
  end
  begin
     id 20
     name lwrist
     direction 1 -4.48959e-011 1.61068e-026   
     length 1.49499   
     axis -9.31229e-015 90 90   XYZ
    dof ry
    limits (-180.0 0.0)
 end
  begin
     id 21 
     name lhand
     direction 1 -4.49017e-011 3.22136e-026   
     length 0.726745   
     axis -2.0555e-014 90 90   XYZ
    dof rx rz
    limits (-90.0 90.0)
           (-45.0 45.0)
  end
  begin
     id 22 
     name lfingers
     direction 1 -4.4898e-011 6.44272e-026   
     length 0.58592   
     axis -4.11101e-014 90 90   XYZ
    dof rx
    limits (0.0 90.0)
  end
  begin
     id 23
     name lthumb
     direction 0.707107 -6.34922e-011 0.707107   
     length 0.841268   
     axis -90 45 2.85299e-015   XYZ
    dof rx rz
    limits (-45.0 45.0)
           (-45.0 45.0)
  end
  begin
     id 24 
     name rclavicle
     direction -0.972232 0.230238 0.0419005   
     length 3.40416  
     axis 0 0 0   XYZ 
    dof ry rz
    limits (-10.0 20.0)
           (-20.0 0.0)
  end
  begin
     id 25 
     name rhumerus
     direction -1 -4.48976e-011 2.48487e-027  
     length 5.37045   
     axis 180 30 90   XYZ
    dof rx ry rz
    limits (-90.0 60.0)
           (-90.0 90.0)
           (-90.0 90.0)
  end
  begin
     id 26 
     name rradius
     direction -1 -4.48942e-011 7.87951e-027   
     length 2.92792   
     axis 180 30 90   XYZ
    dof rx
    limits (-10.0 170.0)
  end
  begin
     id 27 
     name rwrist
     direction -1 -4.48969e-011 1.61068e-026   
     length 1.46396   
     axis -9.31229e-015 -90 -90   XYZ
    dof ry
    limits (-180.0 0.0)
  end
  begin
     id 28
     name rhand
     direction -1 -4.49043e-011 3.22136e-026   
     length 0.784497   
     axis -2.0555e-014 -90 -90   XYZ
    dof rx rz
    limits (-90.0 90.0)
           (-45.0 45.0)
  end
  begin
     id 29
     name rfingers
     direction -1 -4.48823e-011 6.44272e-026   
     length 0.632482   
     axis -4.11101e-014 -90 -90   XYZ
    dof rx
    limits (0.0 90.0)
  end
  begin
     id 30
     name rthumb
     direction -0.707107 -6.34923e-011 0.707107   
     length 0.908121   
     axis -90 -45 -2.85299e-015   XYZ
    dof rx rz
    limits (-45.0 45.0)
           (-45.0 45.0)
  end
:hierarchy
  begin
    root lhipjoint rhipjoint lowerback
    lhipjoint lfemur
    lfemur ltibia
    ltibia lfoot
    lfoot ltoes
    rhipjoint rfemur
    rfemur rtibia
    rtibia rfoot
    rfoot rtoes
    lowerback upperback
    upperback thorax
    thorax lowerneck lclavicle rclavicle
    lowerneck upperneck
    upperneck head
    lclavicle lhumerus
    lhumerus lradius
    lradius lwrist
    lwrist lhand lthumb
    lhand lfingers
    rclavicle rhumerus
    rhumerus rradius
    rradius rwrist
    rwrist rhand rthumb
    rhand rfingers
  end

#!OML:ASF E:\Style6\Style6.ASF
:FULLY-SPECIFIED
:DEGREES
1738
root 0.923108 16.7825 -0.882847 1.3177 -9.30281 -2.45375
lowerback 5.54882 -0.533558 3.44296
upperback 17.3152 -1.19702 1.7181
thorax 16.1632 -0.323594 -0.0776644
lowerneck 8.17012 -0.23999 2.22927
upperneck -3.65747 -0.4667 -6.56623
head -2.65398 -0.0436489 -2.5259
rclavicle -5.56597e-015 1.59028e-014
rhumerus 38.6534 19.2048 -53.6065
rradius 44.0364
rwrist 18.8966
rhand 8.16685 3.67046
rfingers 7.12502
rthumb 33.3857 -23.2476
lclavicle -5.56597e-015 1.59028e-014
lhumerus 45.5389 -27.6645 40.5021
lradius 37.0236
lwrist -1.00872
lhand -3.36616 24.6917
lfingers 7.12502
lthumb 22.3625 53.4174
rfemur -32.3155 -5.98592 20.2767
rtibia 50.3976
rfoot -12.0126 0.627937
rtoes -9.19274
lfemur -29.4738 11.9859 -17.5644
ltibia 55.052
lfoot -19.0633 6.32563
ltoes -16.7773
1739
root 0.923284 16.7807 -0.8832 1.32416 -9.30358 -2.44796
lowerback 5.58511 -0.520997 3.46861
upperback 17.3207 -1.17853 1.71322
thorax 16.1476 -0.310673 -0.0954338
lowerneck 8.21352 -0.267416 2.22843
upperneck -3.72729 -0.506901 -6.56788
head -2.6878 -0.0618517 -2.52602
rclavicle 2.84262e-014 1.23246e-014
rhumerus 38.6911 19.1906 -53.5675
rradius 43.9837
rwrist 18.8251
rhand 8.09268 3.67216
rfingers 7.12502
rthumb 33.3151 -23.261
lclavicle 2.84262e-014 1.23246e-014
lhumerus 45.5992 -27.6165 40.52
lradius 36.9904
lwrist -1.10006
lhand -3.23712 24.6595
lfingers 7.12502
lthumb 22.4864 53.3703
rfemur -32.3453 -6.0117 20.2754
rtibia 50.4179
rfoot -11.9956 0.622913
rtoes -9.16813
lfemur -29.4887 11.9779 -17.5766
ltibia 55.056
lfoot -19.0349 6.41569
ltoes -17.1008
1740
root 0.92278 16.7808 -0.882325 1.31768 -9.30623 -2.41106
lowerback 5.63973 -0.515405 3.45396
upperback 17.3034 -1.16445 1.69605
thorax 16.0892 -0.304794 -0.105428
lowerneck 8.30101 -0.290264 2.20599
upperneck -3.80069 -0.543601 -6.57385
head -2.73085 -0.0770449 -2.52428
rclavicle -3.37934e-015 2.10712e-014
rhumerus 38.6693 19.1944 -53.62
rradius 43.8885
rwrist 18.8304
rhand 7.89761 3.64486
rfingers 7.12502
rthumb 33.1297 -23.3279
lclavicle -3.37934e-015 2.10712e-014
lhumerus 45.6648 -27.6831 40.3962
lradius 36.9762
lwrist -1.02608
lhand -3.28252 24.7853
lfingers 7.12502
lthumb 22.4428 53.5014
rfemur -32.3518 -6.02585 20.2363
rtibia 50.4295
rfoot -12.0107 0.60729
rtoes -9.22487
lfemur -29.4774 11.9531 -17.616
ltibia 55.0549
lfoot -19.014 6.48273
ltoes -17.201
1741
root 0.922135 16.7813 -0.880769 1.31348 -9.31135 -2.41792
lowerback 5.6815 -0.53052 3.42956
upperback 17.2903 -1.18509 1.72603
thorax 16.0451 -0.322114 -0.0597832
lowerneck 8.37518 -0.280248 2.14171
upperneck -3.82719 -0.539545 -6.59303
head -2.75323 -0.0717317 -2.52035
rclavicle 3.57812e-014 2.62396e-014
rhumerus 38.6882 19.2226 -53.6591
rradius 43.8409
rwrist 18.8261
rhand 7.86027 3.65002
rfingers 7.12502
rthumb 33.0942 -23.3303
lclavicle 3.57812e-014 2.62396e-014
lhumerus 45.6373 -27.6904 40.3892
lradius 36.9271
lwrist -0.962964
lhand -3.4284 24.8791
lfingers 7.12502
lthumb 22.3028 53.612
rfemur -32.3398 -6.04473 20.2501
rtibia 50.4295
rfoot -12.0598 0.582481
rtoes -10.08
lfemur -29.4477 11.9481 -17.5998
ltibia 55.0502
lfoot -19.0587 6.44313
ltoes -17.0921
1742
root 0.921468 16.7816 -0.879859 1.33209 -9.32032 -2.45488
lowerback 5.68422 -0.538762 3.45317
upperback 17.2916 -1.19979 1.74671
thorax 16.0455 -0.328216 -0.0506476
lowerneck 8.38727 -0.260715 2.16894
upperneck -3.78476 -0.510544 -6.63133
head -2.74051 -0.0568841 -2.53933
rclavicle -2.78299e-015 -6.75868e-015
rhumerus 38.7169 19.2139 -53.7127
rradius 43.8013
rwrist 18.8587
rhand 7.72759 3.66668
rfingers 7.12502
rthumb 32.968 -23.3403
lclavicle -2.78299e-015 -6.75868e-015
lhumerus 45.6001 -27.6502 40.4094
lradius 36.9241
lwrist -0.96545
lhand -3.5375 24.9196
lfingers 7.12502
lthumb 22.198 53.665
rfemur -32.3461 -6.04456 20.2953
rtibia 50.4268
rfoot -12.0418 0.61083
rtoes -10.2716
lfemur -29.4578 11.968 -17.5575
ltibia 55.0583
lfoot -19.0942 6.40189
ltoes -17.1199
1743
root 0.920999 16.7824 -0.878791 1.32246 -9.32229 -2.45426
lowerback 5.70465 -0.552306 3.45027
upperback 17.2988 -1.21833 1.75238
thorax 16.0417 -0.338362 -0.0439069
lowerneck 8.35471 -0.223396 2.17527
upperneck -3.7034 -0.455109 -6.61915
head -2.7039 -0.0315879 -2.53733
rclavicle -1.98785e-015 3.10104e-014
rhumerus 38.7431 19.2425 -53.7109
rradius 43.8196
rwrist 18.842
rhand 7.66974 3.6068
rfingers 7.12502
rthumb 32.913 -23.4117
lclavicle -1.98785e-015 3.10104e-014
lhumerus 45.5165 -27.5985 40.4869
lradius 36.9548
lwrist -0.992958
lhand -3.58623 25.0174
lfingers 7.12502
lthumb 22.1512 53.7683
rfemur -32.3252 -6.04411 20.2946
rtibia 50.421
rfoot -11.9793 0.609648
rtoes -10.0768
lfemur -29.4514 11.9781 -17.558
ltibia 55.0651
lfoot -19.0705 6.44546
ltoes -17.3701
1744
root 0.920565 16.7808 -0.878929 1.33919 -9.30979 -2.45139
lowerback 5.70567 -0.5492 3.45307
upperback 17.3084 -1.21592 1.76424
thorax 16.0545 -0.337854 -0.0317301
lowerneck 8.31719 -0.238182 2.25533
upperneck -3.70699 -0.471298 -6.69854
head -2.70079 -0.0387911 -2.57814
rclavicle 8.15017e-015 1.70955e-014
rhumerus 38.793 19.1978 -53.7195
rradius 43.7885
rwrist 18.8495
rhand 7.6152 3.61049
rfingers 7.12502
rthumb 32.8611 -23.4189
lclavicle 8.15017e-015 1.70955e-014
lhumerus 45.5213 -27.536 40.5823
lradius 36.9067
lwrist -1.06969
lhand -3.56939 24.9966
lfingers 7.12502
lthumb 22.1674 53.7456
rfemur -32.3472 -6.05803 20.2948
rtibia 50.4247
rfoot -11.9843 0.669231
rtoes -9.01371
lfemur -29.493 11.9586 -17.5638
ltibia 55.0872
lfoot -19.0618 6.43688
ltoes -17.3522
1745
root 0.919284 16.7803 -0.878055 1.3399 -9.33168 -2.4533
lowerback 5.71957 -0.51485 3.46796
upperback 17.3222 -1.17085 1.77437
thorax 16.0656 -0.314937 -0.0246414
lowerneck 8.34438 -0.282958 2.28741
upperneck -3.7825 -0.532794 -6.72032
head -2.73531 -0.0675622 -2.59013
rclavicle -9.14409e-015 1.11319e-014
rhumerus 38.7874 19.1159 -53.7274
rradius 43.7304
rwrist 18.8136
rhand 7.46988 3.71466
rfingers 7.12502
rthumb 32.7228 -23.3436
lclavicle -9.14409e-015 1.11319e-014
lhumerus 45.6561 -27.564 40.5017
lradius 36.8963
lwrist -1.0235
lhand -3.51018 25.0148
lfingers 7.12502
lthumb 22.2243 53.7571
rfemur -32.3484 -6.02428 20.2996
rtibia 50.4229
rfoot -12.0182 0.669958
rtoes -8.82368
lfemur -29.4843 11.9748 -17.5554
ltibia 55.0964
lfoot -19.0982 6.42682
ltoes -17.0941
1746
root 0.918416 16.7799 -0.877308 1.34559 -9.34709 -2.48618
lowerback 5.71393 -0.504599 3.52435
upperback 17.3333 -1.16062 1.78025
thorax 16.0846 -0.302466 -0.0481271
lowerneck 8.39161 -0.290409 2.25455
upperneck -3.81395 -0.54478 -6.67213
head -2.75447 -0.073383 -2.56803
rclavicle 1.64991e-014 -1.70955e-014
rhumerus 38.806 19.1093 -53.7176
rradius 43.6777
rwrist 18.756
rhand 7.33548 3.79997
rfingers 7.12502
rthumb 32.595 -23.2848
lclavicle 1.64991e-014 -1.70955e-014
lhumerus 45.6993 -27.5431 40.4904
lradius 36.888
lwrist -1.0272
lhand -3.48366 25.102
lfingers 7.12502
lthumb 22.2497 53.8412
rfemur -32.3433 -6.00659 20.3402
rtibia 50.4122
rfoot -12.0168 0.644868
rtoes -9.26701
lfemur -29.4675 11.9767 -17.5097
ltibia 55.1003
lfoot -19.1297 6.41333
ltoes -16.8338
